<?xml version="1.0" encoding="utf-8"?>
<!-- Svg Vector Icons : http://www.onlinewebfonts.com/icon -->
<!DOCTYPE svg PUBLIC "-//W3C//DTD SVG 1.1//EN" "http://www.w3.org/Graphics/SVG/1.1/DTD/svg11.dtd">
<svg version="1.1" xmlns="http://www.w3.org/2000/svg" xmlns:xlink="http://www.w3.org/1999/xlink" x="0px" y="0px" viewBox="0 0 1000 1000" enable-background="new 0 0 1000 1000" xml:space="preserve">
<metadata> Svg Vector Icons : http://www.onlinewebfonts.com/icon </metadata>
<g><g transform="translate(0.000000,511.000000) scale(0.100000,-0.100000)">
<path fill='#fff' d="M4634.5,4984.5c-130.6-42.1-230.2-108.5-338.7-225.8c-119.5-128.4-179.3-270.1-194.8-445l-11.1-139.5h-239.1c-188.2,0-265.6-8.8-363-46.5c-179.3-66.4-321-188.2-409.5-354.2c-75.3-137.3-77.5-148.3-77.5-385.2c0-223.6,4.4-252.4,59.8-358.6c88.5-168.2,174.9-254.6,332.1-340.9l139.5-75.3h1472.1h1472.1l128.4,64.2c225.8,115.1,367.5,309.9,416.2,571.1c66.4,356.4-112.9,701.7-440.5,861.1c-84.1,42.1-155,53.1-380.7,62l-276.7,13.3l-15.5,146.1c-24.3,267.9-190.4,500.3-436.1,613.2c-112.9,55.3-150.6,59.8-433.9,64.2C4824.9,5013.3,4698.7,5004.5,4634.5,4984.5z M5316.3,4566.1c148.3-79.7,183.7-159.4,197-440.5c15.5-343.1,4.4-336.5,495.9-349.8c376.3-11.1,383-11.1,462.7-73.1c110.7-84.1,148.3-166,148.3-321c0-143.9-46.5-239.1-161.6-323.2c-62-46.5-81.9-46.5-1423.4-53.1c-1321.6-4.4-1361.4-4.4-1445.6,39.8c-128.4,64.2-188.2,159.4-197,321c-8.9,174.9,53.1,287.8,194.8,360.8c88.5,44.3,128.4,48.7,438.3,48.7h340.9l64.2,64.2c62,62,64.2,73.1,64.2,265.6c0,221.4,19.9,294.4,106.3,387.4c93,97.4,170.5,121.8,405.1,124C5187.9,4617.1,5232.2,4610.4,5316.3,4566.1z"/>
<path fill='#fff' d="M4893.5,4236.3c-59.8-64.2-55.3-141.7,11.1-205.9c66.4-66.4,119.5-68.6,197-8.9c66.4,53.1,75.3,139.5,22.1,214.7C5077.2,4302.7,4955.5,4302.7,4893.5,4236.3z"/>
<path fill='#fff' d="M1550.8,4132.2c-106.3-55.3-172.7-159.4-188.2-296.6c-6.6-64.2-11.1-1972.4-6.6-4243.7c6.6-4106.5,6.6-4128.6,50.9-4206.1c26.6-42.1,79.7-95.2,121.8-121.7c77.5-44.3,104-44.3,3442.4-50.9c3750.1-6.6,3491.1-17.7,3615,146.1l59.8,77.5v4257v4257l-46.5,59.8c-24.4,33.2-73.1,81.9-106.3,106.3c-57.5,44.3-95.2,46.5-695.1,53.1l-633.1,6.7l46.5-50.9c75.3-79.7,183.8-318.8,210.3-456c13.3-70.8,26.6-139.5,31-152.8c4.4-22.1,77.5-28.8,263.4-28.8h254.6V-308.5V-4105H5004.2H2037.8v3796.6V3488h263.4h261.2l13.3,106.3c15.5,141.7,90.8,336.5,181.5,469.3l75.3,110.7h-602.1C1685.8,4174.3,1619.4,4169.9,1550.8,4132.2z"/>
<path fill='#fff' d="M6274.9,689.9c-46.5-19.9-279-294.4-750.4-878.9c-376.4-467.1-752.7-932-832.4-1031.6l-148.3-181.5l-283.4,318.8c-307.7,347.5-391.8,407.3-553.4,380.7c-223.6-37.6-347.5-285.6-232.4-469.3c62-104.1,843.4-969.6,914.3-1016.1c84.1-53.1,303.3-42.1,374.1,22.1c55.3,48.7,1857.3,2275.7,1937,2393.1C6879.2,492.9,6578.2,822.7,6274.9,689.9z"/></g></g>
</svg>